/* XPM */
static char *flcluster[] = {
/* columns rows colors chars-per-pixel */
"48 48 55 1 ",
"  c black",
". c #000002",
"X c #0A0D50",
"o c #187476",
"O c #00BF00",
"+ c #00BC04",
"@ c #01B80A",
"# c #05AD1B",
"$ c #03B410",
"% c #04B115",
"& c #0A9D35",
"* c #0C973F",
"= c #07A725",
"- c green",
"; c #0F8E4E",
": c #118A54",
"> c #138260",
", c #138360",
"< c #2228A2",
"1 c #262CBA",
"2 c #205D9B",
"3 c #1D668D",
"4 c #1E6294",
"5 c #215AA0",
"6 c #254EB2",
"7 c #1A20C1",
"8 c #282FC2",
"9 c #2B33CF",
"0 c #2A3ECD",
"q c #2B3BD2",
"w c #2C39D5",
"e c #2D35DA",
"r c #2D35DB",
"t c #2E35DB",
"y c #2D36DB",
"u c #2E36DB",
"i c #2D35DC",
"p c #2D36DC",
"a c #2E36DC",
"s c #1F28EC",
"d c #1F29EC",
"f c #2726E0",
"g c #2626E1",
"h c #2626E2",
"j c #2128EA",
"k c #2028EB",
"l c #2029EB",
"z c #2028EC",
"x c #2029EC",
"c c #2028ED",
"v c #2029ED",
"b c #2845C2",
"n c #2940CA",
"m c #FFFFC0",
"M c None",
/* pixels */
"MMMMMMMMMMMMMMMMMMMMMMMMMMMMMMMMMMMMMMMMMMMMMMMM",
"MMMMMMMMMMMMMMMMMMMMMMMMMMMMMMMMMMMMMMMMMMMMMMMM",
"MMMMMMMMMMMMMMMMMMMMMMMMMMMMMMMMMMMMMMMMMMMMMMMM",
"MMMMMMMMMMMMMMMMMMMMMMMMMMMMMMMMMMM MMMMMMMMMMMM",
"MMMMMMMMMMMMMMMMMMMMMMMMMMMMMMMMMM - MMMMMMMMMMM",
"MMMMMMMMMMMMMMMMMMMMMMMMMMMMMMMMM --- MMMMMMMMMM",
"MMMMMMMvvvvvssvkMMMMMMMMMMMMMMMM ----- MMMMMMMMM",
"MMMMMMMvvvvvvvvvvkMMMMMMMMMMMMM ------- MMMMMMMM",
"MMMMMMvvaaaMMMMssvkMMMMMMMMMMM --------- MMMMMMM",
"MMMMMMkvaaMMMMMMMvvMMMMMMMMMM ----------- MMMMMM",
"MMMMMMsvaMMMMMMMMsvkMMMMMMMM ------------- MMMMM",
"MMMMMMvaaMMMMMMMMMvvMMMMMMM --------------- MMMM",
"MMMMMMvaaMMMMMMMMMvvMMMMMMMMMMM ------- MMMMMMMM",
"MMMMMsvaaMMMMMMMMMvvMMMMMMMMMMMM-------MMMMMMMMM",
"MMMMMvvaaMMMMMMMMMvvMMMMMMMMMMMM-------MMMMMMMMM",
"MMMMMvkaMMMMM    Xv7         MMM-------MMMMMMMMM",
"MMMMMvaaMMM mmmmmmvvMmmmmmmmm MM-------MMMMMMMMM",
"MMMMvvaaMM mmmmmmmvvMmmmmmmmm MM-------MMMMMMMMM",
"MMMMkvaMM mmmmmmmvvvMmmmmmmmm MM-------MMMMMMMMM",
"MMMMsvaMMmmmmmmmgkvMmmmmmmmmm MM-------MMMMMMMMM",
"MMMMvvtMMmmmmmmgvvMmmmmmmmmmm MM-------MMMMMMMMM",
"MMMMvaaMMmmmmmvvvMmmmmmmmmmmm MM-------MMMMMMMMM",
"MMMsvvvvvvvvvvvvMmmmmmmmmmmmm MM-------MMMMMMMMM",
"MMMvvvvvvgvvvvvMMMMMMMMMMMMMMMMM-------MMMMMMMMM",
"MMMMMMMMMmmmmmmmMMMMMMMMMMMMMMMM-------MMMMMMMMM",
"MMMMMMMMMmmmmmmmMM --------------------MMMMMMMMM",
"MMMMMMMMMmmmmmmmMM ---------4a2-------O8aaayMMMM",
"MMMMMMMMMmmmmmmmMM ---------%0a;------,ayaaMMMMM",
"MMMMMMMMMmmmmmmmMM ----------:an$----=wyaaMMMMMM",
"MMMMMMMMMmmmmmmmMM -----------5a3---+6aaayMMMMMM",
"MMMMMMMMMmmmmmmmMM -----------#qa*--oaaayMMMMMMM",
"MMMMMMMMMmmmmmmmMM ------------,ab@&ttaaMMMMMMMM",
"MMMMMMMMMmmmmmmmMMM             1a<9aaayMMMMMMMM",
"MMMMMMMMMmmmmmmmMMMMMMMMMMMMMMMMMaaaaayMMMMMMMMM",
"MMMMMMMMMmmmmmmmMMMMMMMMMMMMMMMMMaaaaaMMMMMMMMMM",
"MMMMMMMM mmmmmmm MMMMMMMMMMMMMMMMaaaayMMMMMMMMMM",
"MMMM mmmmmmmmmmmmmmm MMMMMMMMMMMtaatpMMMMMMMMMMM",
"MMMMM mmmmmmmmmmmmm MMMMMMMMMMMMaaaaatMMMMMMMMMM",
"MMMMMM mmmmmmmmmmm MMMMMMMMMMMMataataaMMMMMMMMMM",
"MMMMMMM mmmmmmmmm MMMMMMMMMMMMtaaatMMyyMMMMMMMMM",
"MMMMMMMM mmmmmmm MMMMMMMMMMMMtaaaaMMMtayMMMMMMMM",
"MMMMMMMMM mmmmm MMMMMMMMMMMMMtaaayMMMMaaMMMMMMMM",
"MMMMMMMMMM mmm MMMMMMMMMMMMMtaaayMMMMMMatMMMMMMM",
"MMMMMMMMMMM m MMMMMMMMMMMMMMaaaayMMMMMMtayMMMMMM",
"MMMMMMMMMMMM MMMMMMMMMMMMMMMMMMMMMMMMMMMMMMMMMMM",
"MMMMMMMMMMMMMMMMMMMMMMMMMMMMMMMMMMMMMMMMMMMMMMMM",
"MMMMMMMMMMMMMMMMMMMMMMMMMMMMMMMMMMMMMMMMMMMMMMMM",
"MMMMMMMMMMMMMMMMMMMMMMMMMMMMMMMMMMMMMMMMMMMMMMMM"
};
